#!OML:ASF X:\für Bonn\!DataBase\2005_08_12_Daniel\c3d\Daniel.ASF
:FULLY-SPECIFIED
:DEGREES
46
root 27.8663 16.0276 1.38349 -62.3151 83.9168 -432.882
lowerback 25.6649 -1.12552 5.40158
upperback 6.30919 0.427363 0.0523731
thorax -7.20601 0.339262 -3.20309
lowerneck 1.28068 1.56789 -2.87482
upperneck -0.304791 2.0624 -4.55634
head -0.282188 1.07499 -0.928337
rclavicle 5.96354e-015 -2.14687e-014
rhumerus -82.5133 -38.8749 -16.2756
rradius 9.72669
rwrist 51.612
rhand -20.5602 16.3655
rfingers 7.12502
rthumb 5.79895 -13.5352
lclavicle 5.96354e-015 -2.14687e-014
lhumerus -81.6566 27.9616 41.4532
lradius 23.9459
lwrist -10.3501
lhand -6.20067 -10.5755
lfingers 7.12502
lthumb 19.6394 18.4524
rfemur -36.4904 3.02141 27.5392
rtibia 64.6829
rfoot -28.1378 2.99512
rtoes -7.07432
lfemur -42.0623 -6.13396 -9.86951
ltibia 74.4286
lfoot -35.841 -0.642597
ltoes -13.354
47
root 27.9365 15.9226 1.38468 -61.1364 83.6758 -431.559
lowerback 25.8232 -1.08895 5.56411
upperback 5.92865 0.510064 0.0523099
thorax -7.69959 0.342289 -3.32719
lowerneck 1.03614 1.54106 -2.88229
upperneck -1.12565 1.99992 -4.55623
head -0.493756 1.06294 -0.930917
rclavicle 1.2921e-014 8.34896e-015
rhumerus -75.3362 -39.5248 -27.6007
rradius 10.3131
rwrist 42.7083
rhand -21.5427 15.5362
rfingers 7.12502
rthumb 4.85036 -14.3883
lclavicle 1.2921e-014 8.34896e-015
lhumerus -78.1123 28.8363 46.1592
lradius 25.3963
lwrist -5.89121
lhand -6.56038 -9.78224
lfingers 7.12502
lthumb 19.2936 19.2807
rfemur -36.2913 3.28824 27.7818
rtibia 65.3168
rfoot -29.2592 3.0807
rtoes -7.00059
lfemur -41.9242 -6.2742 -9.80508
ltibia 75.3647
lfoot -36.9205 -0.0819111
ltoes -13.336
48
root 28.0098 15.8416 1.38641 -59.7409 83.4809 -430.032
lowerback 25.7098 -1.03139 5.69934
upperback 5.58072 0.591478 0.031052
thorax -8.02049 0.349123 -3.45494
lowerneck 1.28573 1.51605 -3.0128
upperneck -2.11831 1.90942 -4.42049
head -0.845187 1.04753 -0.878906
rclavicle -8.74653e-015 -1.98785e-015
rhumerus -68.6525 -39.1595 -37.9526
rradius 11.3463
rwrist 35.0164
rhand -22.614 15.3737
rfingers 7.12502
rthumb 3.81588 -14.5719
lclavicle -8.74653e-015 -1.98785e-015
lhumerus -74.1529 29.3363 51.0813
lradius 27.0075
lwrist -1.54518
lhand -6.95431 -9.24393
lfingers 7.12502
lthumb 18.9148 19.8564
rfemur -35.9406 3.55456 27.9567
rtibia 65.6703
rfoot -30.2373 3.1476
rtoes -6.89696
lfemur -41.6264 -6.46448 -9.82282
ltibia 76.0205
lfoot -37.849 0.555925
ltoes -13.3877
49
root 28.0858 15.7828 1.38687 -58.2914 83.2991 -428.441
lowerback 25.4243 -0.966568 5.82392
upperback 5.27286 0.668582 0.0147209
thorax -8.20921 0.358882 -3.5666
lowerneck 1.63334 1.51253 -3.28537
upperneck -3.02176 1.84807 -4.15659
head -1.19207 1.04488 -0.764491
rclavicle -2.38542e-015 0
rhumerus -62.3743 -38.4123 -47.0566
rradius 12.3586
rwrist 28.839
rhand -23.8258 15.8188
rfingers 7.12502
rthumb 2.64559 -14.1445
lclavicle -2.38542e-015 0
lhumerus -69.8452 29.7208 55.7372
lradius 28.4691
lwrist 2.24287
lhand -7.26326 -9.10697
lfingers 7.12502
lthumb 18.6176 20.0221
rfemur -35.4387 3.793 28.0977
rtibia 65.7565
rfoot -31.0548 3.18811
rtoes -6.86917
lfemur -41.1569 -6.68726 -9.90023
ltibia 76.3905
lfoot -38.6236 1.27088
ltoes -13.3747
50
root 28.1663 15.7474 1.38682 -56.7246 83.172 -426.708
lowerback 25.143 -0.90846 5.91406
upperback 4.94195 0.724836 -0.0365009
thorax -8.42685 0.356777 -3.69076
lowerneck 1.86062 1.54963 -3.59302
upperneck -3.60675 1.86371 -3.75832
head -1.42273 1.06753 -0.598555
rclavicle -7.55382e-015 1.74931e-014
rhumerus -55.7255 -36.2806 -56.713
rradius 13.7012
rwrist 22.218
rhand -24.9202 16.6351
rfingers 7.12502
rthumb 1.58863 -13.3387
lclavicle -7.55382e-015 1.74931e-014
lhumerus -65.2116 29.8012 60.2721
lradius 29.9028
lwrist 5.69753
lhand -7.33647 -9.20448
lfingers 7.12502
lthumb 18.5472 19.9313
rfemur -34.7764 3.97786 28.1696
rtibia 65.6075
rfoot -31.7322 3.1716
rtoes -6.99277
lfemur -40.4801 -6.91782 -10.0787
ltibia 76.4501
lfoot -39.3046 2.0569
ltoes -13.5617
51
root 28.2517 15.7342 1.38665 -54.7216 83.0533 -424.541
lowerback 24.8024 -0.822231 5.96642
upperback 4.61941 0.802716 -0.0981378
thorax -8.60162 0.366979 -3.81017
lowerneck 2.00379 1.59708 -3.97536
upperneck -4.02558 1.90615 -3.28282
head -1.58997 1.09696 -0.393457
rclavicle 7.15625e-015 1.11319e-014
rhumerus -49.2443 -32.4738 -66.415
rradius 15.6547
rwrist 15.1166
rhand -25.8144 17.4935
rfingers 7.12502
rthumb 0.725044 -12.485
lclavicle 7.15625e-015 1.11319e-014
lhumerus -60.1964 29.2314 65.0747
lradius 31.5528
lwrist 9.36226
lhand -7.20117 -9.43427
lfingers 7.12502
lthumb 18.6773 19.6891
rfemur -33.9988 4.2056 28.1798
rtibia 65.2512
rfoot -32.2756 3.08911
rtoes -7.29075
lfemur -39.6187 -7.09647 -10.329
ltibia 76.2002
lfoot -39.8316 2.81785
ltoes -13.6978
52
root 28.3398 15.7386 1.38576 -52.4966 82.9982 -422.103
lowerback 24.5529 -0.739166 5.94132
upperback 4.24268 0.861317 -0.181236
thorax -8.88615 0.363876 -3.90515
lowerneck 1.97317 1.65224 -4.28649
upperneck -4.03837 1.98372 -2.87138
head -1.59688 1.13106 -0.215149
rclavicle -9.93923e-016 7.95139e-016
rhumerus -43.8697 -27.2955 -75.0573
rradius 18.3441
rwrist 8.12697
rhand -26.4749 18.0837
rfingers 7.12502
rthumb 0.0870772 -11.896
lclavicle -9.93923e-016 7.95139e-016
lhumerus -55.2546 27.9385 69.8164
lradius 33.6269
lwrist 13.2125
lhand -6.75213 -9.52799
lfingers 7.12502
lthumb 19.1092 19.5533
rfemur -33.0828 4.39866 28.0872
rtibia 64.7362
rfoot -32.687 3.04266
rtoes -7.546
lfemur -38.5628 -7.25354 -10.692
ltibia 75.6768
lfoot -40.207 3.57687
ltoes -13.9344
53
root 28.4348 15.7639 1.38462 -50.1175 82.9097 -419.496
lowerback 24.3846 -0.652387 5.94501
upperback 3.75731 0.935818 -0.276057
thorax -9.33238 0.356787 -4.03792
lowerneck 1.93351 1.71698 -4.5249
upperneck -3.77051 2.08231 -2.53548
head -1.51174 1.16834 -0.0709066
rclavicle 1.33186e-014 1.03368e-014
rhumerus -39.9685 -21.8151 -81.8587
rradius 21.634
rwrist 2.23873
rhand -26.7553 18.4734
rfingers 7.12502
rthumb -0.183793 -11.5062
lclavicle 1.33186e-014 1.03368e-014
lhumerus -50.7969 25.7715 74.282
lradius 36.3375
lwrist 17.1752
lhand -6.07343 -9.42174
lfingers 7.12502
lthumb 19.7618 19.5937
rfemur -32.0335 4.58052 27.9914
rtibia 64.033
rfoot -32.9214 2.9565
rtoes -7.8489
lfemur -37.3198 -7.31327 -11.0812
ltibia 74.8917
lfoot -40.4164 4.30199
ltoes -14.0058
54
root 28.5412 15.8091 1.38447 -47.5827 82.8625 -416.735
lowerback 24.109 -0.571189 5.87877
upperback 3.27419 0.978199 -0.372349
thorax -9.72479 0.338666 -4.12002
lowerneck 1.82351 1.77379 -4.6736
upperneck -3.35373 2.17764 -2.31848
head -1.36529 1.20119 0.0227544
rclavicle -1.2921e-014 -3.06128e-014
rhumerus -37.0515 -16.5248 -87.1115
rradius 25.3357
rwrist -2.25178
rhand -26.8845 18.6868
rfingers 7.12502
rthumb -0.308568 -11.2927
lclavicle -1.2921e-014 -3.06128e-014
lhumerus -46.8791 22.9966 78.281
lradius 39.7079
lwrist 21.0689
lhand -5.25884 -9.07043
lfingers 7.12502
lthumb 20.5447 19.8625
rfemur -30.8447 4.77562 27.8166
rtibia 63.1327
rfoot -33.0315 2.8648
rtoes -8.24147
lfemur -35.9294 -7.3156 -11.5376
ltibia 73.8564
lfoot -40.4647 4.97581
ltoes -14.3374
55
root 28.6612 15.8725 1.38434 -44.9421 82.8146 -413.843
lowerback 23.7137 -0.471303 5.82209
upperback 2.81009 1.03919 -0.483146
thorax -10.0291 0.332862 -4.22676
lowerneck 1.64049 1.81868 -4.73478
upperneck -2.73965 2.26732 -2.17105
head -1.14307 1.22632 0.0818559
rclavicle 5.1684e-015 -3.18055e-015
rhumerus -34.8762 -11.7109 -91.0847
rradius 29.4383
rwrist -5.33607
rhand -26.8416 18.9057
rfingers 7.12502
rthumb -0.267132 -11.0738
lclavicle 5.1684e-015 -3.18055e-015
lhumerus -43.6422 19.6197 81.7557
lradius 43.7894
lwrist 24.5932
lhand -4.51567 -8.53634
lfingers 7.12502
lthumb 21.2587 20.3178
rfemur -29.4529 4.92071 27.6005
rtibia 61.9802
rfoot -32.9402 2.85492
rtoes -8.37661
lfemur -34.3318 -7.26196 -12.0355
ltibia 72.5852
lfoot -40.361 5.52893
ltoes -14.4035
56
root 28.7975 15.9634 1.38648 -42.1538 82.775 -410.775
lowerback 23.1588 -0.377669 5.72542
upperback 2.41074 1.07254 -0.604905
thorax -10.1768 0.324215 -4.30896
lowerneck 1.50369 1.87286 -4.74115
upperneck -2.08555 2.36721 -2.09986
head -0.916803 1.25722 0.107854
rclavicle 9.74045e-015 -1.59028e-015
rhumerus -33.029 -7.37432 -94.1358
rradius 33.6695
rwrist -6.95728
rhand -26.7104 19.3353
rfingers 7.12502
rthumb -0.140377 -10.6444
lclavicle 9.74045e-015 -1.59028e-015
lhumerus -41.3286 16.0763 84.5632
lradius 48.5983
lwrist 27.5111
lhand -3.87721 -7.95838
lfingers 7.12502
lthumb 21.8719 20.8255
rfemur -27.8047 5.0759 27.3364
rtibia 60.5315
rfoot -32.6887 2.85451
rtoes -8.54965
lfemur -32.5892 -7.26136 -12.5587
ltibia 71.058
lfoot -40.0112 6.02155
ltoes -14.4883
